<svg width="145" height="40" viewBox="0 0 145 40" fill="none" xmlns="http://www.w3.org/2000/svg">
<path fill-rule="evenodd" clip-rule="evenodd" d="M7.5 10C7.5 8.61929 8.61929 7.5 10 7.5H13.75C15.1307 7.5 16.25 8.61929 16.25 10V30C16.25 31.3807 15.1307 32.5 13.75 32.5H10C8.61929 32.5 7.5 31.3807 7.5 30V10ZM13.75 10H10V30H13.75V10Z" fill="#00B37E"/>
<path fill-rule="evenodd" clip-rule="evenodd" d="M23.75 10C23.75 8.61929 24.8693 7.5 26.25 7.5H30C31.3807 7.5 32.5 8.61929 32.5 10V30C32.5 31.3807 31.3807 32.5 30 32.5H26.25C24.8693 32.5 23.75 31.3807 23.75 30V10ZM30 10H26.25V30H30V10Z" fill="#00B37E"/>
<path fill-rule="evenodd" clip-rule="evenodd" d="M30 12.5C30 11.8096 30.5596 11.25 31.25 11.25H35C35.663 11.25 36.2989 11.5134 36.7678 11.9822C37.2366 12.4511 37.5 13.087 37.5 13.75V26.25C37.5 26.913 37.2366 27.5489 36.7678 28.0178C36.2989 28.4866 35.663 28.75 35 28.75H31.25C30.5596 28.75 30 28.1904 30 27.5C30 26.8096 30.5596 26.25 31.25 26.25H35L35 13.75L31.25 13.75C30.5596 13.75 30 13.1904 30 12.5Z" fill="#00B37E"/>
<path fill-rule="evenodd" clip-rule="evenodd" d="M3.23223 11.9822C3.70107 11.5134 4.33696 11.25 5 11.25H8.75C9.44036 11.25 10 11.8096 10 12.5C10 13.1904 9.44036 13.75 8.75 13.75L5 13.75V26.25H8.75C9.44036 26.25 10 26.8096 10 27.5C10 28.1904 9.44036 28.75 8.75 28.75H5C4.33696 28.75 3.70108 28.4866 3.23223 28.0178C2.76339 27.5489 2.5 26.913 2.5 26.25V13.75C2.5 13.087 2.76339 12.4511 3.23223 11.9822Z" fill="#00B37E"/>
<path fill-rule="evenodd" clip-rule="evenodd" d="M13.75 20C13.75 19.3096 14.3096 18.75 15 18.75H25C25.6904 18.75 26.25 19.3096 26.25 20C26.25 20.6904 25.6904 21.25 25 21.25H15C14.3096 21.25 13.75 20.6904 13.75 20Z" fill="#00B37E"/>
<path fill-rule="evenodd" clip-rule="evenodd" d="M35 20C35 19.3096 35.5596 18.75 36.25 18.75H38.75C39.4404 18.75 40 19.3096 40 20C40 20.6904 39.4404 21.25 38.75 21.25H36.25C35.5596 21.25 35 20.6904 35 20Z" fill="#00B37E"/>
<path fill-rule="evenodd" clip-rule="evenodd" d="M0 20C0 19.3096 0.559644 18.75 1.25 18.75H3.75C4.44036 18.75 5 19.3096 5 20C5 20.6904 4.44036 21.25 3.75 21.25H1.25C0.559644 21.25 0 20.6904 0 20Z" fill="#00B37E"/>
<path d="M69.8848 19.0957V26.9844C69.5749 27.3581 69.0964 27.7637 68.4492 28.2012C67.8021 28.6296 66.9681 28.9987 65.9473 29.3086C64.9264 29.6185 63.6914 29.7734 62.2422 29.7734C60.957 29.7734 59.7858 29.5638 58.7285 29.1445C57.6712 28.7161 56.7598 28.0918 55.9941 27.2715C55.2376 26.4512 54.6543 25.4486 54.2441 24.2637C53.834 23.0697 53.6289 21.707 53.6289 20.1758V18.9316C53.6289 17.4004 53.8249 16.0378 54.2168 14.8438C54.6178 13.6497 55.1875 12.6426 55.9258 11.8223C56.6641 11.002 57.5436 10.3776 58.5645 9.94922C59.5853 9.52083 60.7201 9.30664 61.9688 9.30664C63.7005 9.30664 65.1224 9.58919 66.2344 10.1543C67.3464 10.7103 68.194 11.485 68.7773 12.4785C69.3698 13.4629 69.7344 14.5931 69.8711 15.8691H65.8926C65.7923 15.1947 65.6009 14.6068 65.3184 14.1055C65.0358 13.6042 64.6302 13.2122 64.1016 12.9297C63.582 12.6471 62.9076 12.5059 62.0781 12.5059C61.3945 12.5059 60.7839 12.6471 60.2461 12.9297C59.7174 13.2031 59.2708 13.6087 58.9062 14.1465C58.5417 14.6842 58.2637 15.3496 58.0723 16.1426C57.8809 16.9355 57.7852 17.8561 57.7852 18.9043V20.1758C57.7852 21.2148 57.8854 22.1354 58.0859 22.9375C58.2865 23.7305 58.5827 24.4004 58.9746 24.9473C59.3757 25.485 59.8678 25.8906 60.4512 26.1641C61.0345 26.4375 61.7135 26.5742 62.4883 26.5742C63.1354 26.5742 63.6732 26.5195 64.1016 26.4102C64.5391 26.3008 64.89 26.1686 65.1543 26.0137C65.4277 25.8496 65.6374 25.6947 65.7832 25.5488V22.0215H62.0371V19.0957H69.8848ZM72.3184 22.2539V21.9668C72.3184 20.8822 72.4733 19.8841 72.7832 18.9727C73.0931 18.0521 73.5443 17.2546 74.1367 16.5801C74.7292 15.9056 75.4583 15.3815 76.3242 15.0078C77.1901 14.625 78.1836 14.4336 79.3047 14.4336C80.4258 14.4336 81.4238 14.625 82.2988 15.0078C83.1738 15.3815 83.9076 15.9056 84.5 16.5801C85.1016 17.2546 85.5573 18.0521 85.8672 18.9727C86.1771 19.8841 86.332 20.8822 86.332 21.9668V22.2539C86.332 23.3294 86.1771 24.3275 85.8672 25.248C85.5573 26.1595 85.1016 26.957 84.5 27.6406C83.9076 28.3151 83.1784 28.8392 82.3125 29.2129C81.4466 29.5866 80.4531 29.7734 79.332 29.7734C78.2109 29.7734 77.2129 29.5866 76.3379 29.2129C75.472 28.8392 74.7383 28.3151 74.1367 27.6406C73.5443 26.957 73.0931 26.1595 72.7832 25.248C72.4733 24.3275 72.3184 23.3294 72.3184 22.2539ZM76.2559 21.9668V22.2539C76.2559 22.8737 76.3105 23.4525 76.4199 23.9902C76.5293 24.528 76.7025 25.002 76.9395 25.4121C77.1855 25.8132 77.5046 26.1276 77.8965 26.3555C78.2884 26.5833 78.7669 26.6973 79.332 26.6973C79.8789 26.6973 80.3483 26.5833 80.7402 26.3555C81.1322 26.1276 81.4466 25.8132 81.6836 25.4121C81.9206 25.002 82.0938 24.528 82.2031 23.9902C82.3216 23.4525 82.3809 22.8737 82.3809 22.2539V21.9668C82.3809 21.3652 82.3216 20.8001 82.2031 20.2715C82.0938 19.7337 81.916 19.2598 81.6699 18.8496C81.4329 18.4303 81.1185 18.1022 80.7266 17.8652C80.3346 17.6283 79.8607 17.5098 79.3047 17.5098C78.7487 17.5098 78.2747 17.6283 77.8828 17.8652C77.5 18.1022 77.1855 18.4303 76.9395 18.8496C76.7025 19.2598 76.5293 19.7337 76.4199 20.2715C76.3105 20.8001 76.2559 21.3652 76.2559 21.9668ZM104.775 19.0957V26.9844C104.465 27.3581 103.987 27.7637 103.34 28.2012C102.693 28.6296 101.859 28.9987 100.838 29.3086C99.8171 29.6185 98.582 29.7734 97.1328 29.7734C95.8477 29.7734 94.6764 29.5638 93.6191 29.1445C92.5618 28.7161 91.6504 28.0918 90.8848 27.2715C90.1283 26.4512 89.5449 25.4486 89.1348 24.2637C88.7246 23.0697 88.5195 21.707 88.5195 20.1758V18.9316C88.5195 17.4004 88.7155 16.0378 89.1074 14.8438C89.5085 13.6497 90.0781 12.6426 90.8164 11.8223C91.5547 11.002 92.4342 10.3776 93.4551 9.94922C94.4759 9.52083 95.6107 9.30664 96.8594 9.30664C98.5911 9.30664 100.013 9.58919 101.125 10.1543C102.237 10.7103 103.085 11.485 103.668 12.4785C104.26 13.4629 104.625 14.5931 104.762 15.8691H100.783C100.683 15.1947 100.492 14.6068 100.209 14.1055C99.9264 13.6042 99.5208 13.2122 98.9922 12.9297C98.4727 12.6471 97.7982 12.5059 96.9688 12.5059C96.2852 12.5059 95.6745 12.6471 95.1367 12.9297C94.6081 13.2031 94.1615 13.6087 93.7969 14.1465C93.4323 14.6842 93.1543 15.3496 92.9629 16.1426C92.7715 16.9355 92.6758 17.8561 92.6758 18.9043V20.1758C92.6758 21.2148 92.776 22.1354 92.9766 22.9375C93.1771 23.7305 93.4733 24.4004 93.8652 24.9473C94.2663 25.485 94.7585 25.8906 95.3418 26.1641C95.9251 26.4375 96.6042 26.5742 97.3789 26.5742C98.026 26.5742 98.5638 26.5195 98.9922 26.4102C99.4297 26.3008 99.7806 26.1686 100.045 26.0137C100.318 25.8496 100.528 25.6947 100.674 25.5488V22.0215H96.9277V19.0957H104.775ZM112.227 27.832L116.15 14.707H120.375L114.428 31.7285C114.3 32.1022 114.127 32.5033 113.908 32.9316C113.699 33.36 113.411 33.7656 113.047 34.1484C112.691 34.5404 112.24 34.8594 111.693 35.1055C111.156 35.3516 110.495 35.4746 109.711 35.4746C109.337 35.4746 109.032 35.4518 108.795 35.4062C108.558 35.3607 108.275 35.2969 107.947 35.2148V32.3301C108.048 32.3301 108.152 32.3301 108.262 32.3301C108.371 32.3392 108.476 32.3438 108.576 32.3438C109.096 32.3438 109.52 32.2845 109.848 32.166C110.176 32.0475 110.44 31.8652 110.641 31.6191C110.841 31.3822 111.001 31.0723 111.119 30.6895L112.227 27.832ZM110.586 14.707L113.799 25.4258L114.359 29.5957L111.68 29.8828L106.361 14.707H110.586ZM125.885 17.7695V29.5H121.934V14.707H125.639L125.885 17.7695ZM125.338 21.584H124.244C124.244 20.554 124.367 19.6061 124.613 18.7402C124.868 17.8652 125.238 17.1087 125.721 16.4707C126.213 15.8236 126.819 15.3223 127.539 14.9668C128.259 14.6113 129.093 14.4336 130.041 14.4336C130.697 14.4336 131.299 14.5339 131.846 14.7344C132.393 14.9258 132.862 15.2311 133.254 15.6504C133.655 16.0605 133.965 16.5983 134.184 17.2637C134.402 17.9199 134.512 18.7083 134.512 19.6289V29.5H130.574V20.0664C130.574 19.3919 130.483 18.8724 130.301 18.5078C130.118 18.1432 129.859 17.888 129.521 17.7422C129.193 17.5964 128.797 17.5234 128.332 17.5234C127.822 17.5234 127.375 17.6283 126.992 17.8379C126.618 18.0475 126.309 18.3392 126.062 18.7129C125.816 19.0775 125.634 19.5059 125.516 19.998C125.397 20.4902 125.338 21.0189 125.338 21.584ZM134.143 21.1328L132.734 21.3105C132.734 20.3444 132.853 19.4466 133.09 18.6172C133.336 17.7878 133.696 17.0586 134.17 16.4297C134.653 15.8008 135.25 15.3132 135.961 14.9668C136.672 14.6113 137.492 14.4336 138.422 14.4336C139.133 14.4336 139.78 14.5384 140.363 14.748C140.947 14.9486 141.443 15.2721 141.854 15.7188C142.273 16.1562 142.592 16.7305 142.811 17.4414C143.038 18.1523 143.152 19.0228 143.152 20.0527V29.5H139.201V20.0527C139.201 19.3691 139.11 18.8496 138.928 18.4941C138.755 18.1296 138.499 17.8789 138.162 17.7422C137.834 17.5964 137.442 17.5234 136.986 17.5234C136.512 17.5234 136.098 17.6191 135.742 17.8105C135.387 17.9928 135.09 18.248 134.854 18.5762C134.617 18.9043 134.439 19.2871 134.32 19.7246C134.202 20.153 134.143 20.6224 134.143 21.1328Z" fill="white"/>
</svg>
